<svg data-name="Isolation Mode" xmlns="http://www.w3.org/2000/svg" viewBox="0 0 35.1 5.67"><path d="M17.79.22l.5 1.52a.3.3 0 00.29.21h1.6a.3.3 0 01.17.54L19 3.43a.5.5 0 00-.12.33l.49 1.53a.29.29 0 01-.45.32l-1.32-.94a.26.26 0 00-.33 0L16 5.61a.29.29 0 01-.45-.32L16 3.76a.27.27 0 00-.12-.33l-1.32-.94a.3.3 0 01.19-.49h1.6a.3.3 0 00.29-.21l.5-1.52c.2-.34.57-.34.65-.05zm-7.28 0L11 1.74a.31.31 0 00.29.21h1.61a.29.29 0 01.16.54l-1.32.94a.5.5 0 00-.12.33l.49 1.53a.29.29 0 01-.45.32l-1.32-.94a.26.26 0 00-.33 0l-1.31.94a.3.3 0 01-.46-.32l.5-1.53a.28.28 0 00-.13-.33L7.3 2.49A.29.29 0 017.46 2h1.61a.3.3 0 00.28-.21l.5-1.57c.2-.29.58-.29.66 0zm-7.29 0l.49 1.52A.32.32 0 004 2h1.61a.29.29 0 01.16.54l-1.31.94a.46.46 0 00-.13.33l.5 1.53a.3.3 0 01-.46.32l-1.31-.99a.26.26 0 00-.33 0l-1.32.94A.29.29 0 011 5.29l.49-1.53a.29.29 0 00-.12-.33L.13 2.49A.3.3 0 01.3 2h1.6a.3.3 0 00.29-.21l.5-1.57a.27.27 0 01.53 0z" fill="#ffbf3e"/><path d="M35 2.49l-.46.33-.86.61a.48.48 0 00-.12.33L34 5.29a.3.3 0 01-.46.32l-1.32-.94a.24.24 0 00-.32 0l-1.32.94a.3.3 0 01-.46-.32l.5-1.53a.28.28 0 00-.12-.33l-1.15-.82-.17-.12a.29.29 0 01.18-.49H31a.31.31 0 00.29-.21l.46-1.57a.42.42 0 01.33-.22.34.34 0 01.33.22l.49 1.52a.31.31 0 00.29.21h1.61a.29.29 0 01.2.54z" fill="#fff"/><path d="M25.08.22l.5 1.52a.3.3 0 00.28.21h1.61a.29.29 0 01.16.54l-1.31.94a.3.3 0 000 .29l.49 1.52a.3.3 0 01-.45.33L25 4.63a.24.24 0 00-.33 0l-1.32.94a.29.29 0 01-.45-.33l.49-1.52a.27.27 0 00-.12-.33L22 2.44a.29.29 0 01.17-.53h1.6A.3.3 0 0024 1.7l.5-1.52a.3.3 0 01.58.04zM32.08 0v4.61a.23.23 0 00-.16.06l-1.18.84-.14.1a.3.3 0 01-.46-.32l.5-1.53a.28.28 0 00-.12-.33l-1.15-.82-.17-.12a.29.29 0 01.16-.49H31a.31.31 0 00.29-.21l.46-1.57a.42.42 0 01.33-.22z" fill="#ffbf3e"/></svg>