<svg data-name="Layer 1" xmlns="http://www.w3.org/2000/svg" viewBox="0 0 1245 275.3"><path d="M0 101.2h183.5V32.5z" fill="#ff9d28"/><path d="M183.5 32.5v242.7L270.2 0z" fill="#68c5ed"/><path d="M183.5 101.2h-69.4l69.4 174z" fill="#044d80"/><path d="M0 101.2l131.9 44.7-17.8-44.6z" fill="#e54747"/><path d="M420.3 211.3a33.05 33.05 0 01-5 3.8 52.66 52.66 0 01-9.2 4.5 83.28 83.28 0 01-13.8 3.9 95.17 95.17 0 01-18.7 1.6c-13.6 0-25.3-2.2-35.2-6.5a65.35 65.35 0 01-24.5-18.2 73.89 73.89 0 01-14.2-27.6 128.65 128.65 0 01-4.5-35.1 120.49 120.49 0 014.9-35.3 80.46 80.46 0 0114.7-28 67.68 67.68 0 0124.5-18.5c9.8-4.4 21.3-6.7 34.6-6.7a80.3 80.3 0 0117.7 1.8 100.36 100.36 0 0113.8 4.1 59.13 59.13 0 019.8 5 59.78 59.78 0 015.9 4.4 18.63 18.63 0 013.9 4.8 11.49 11.49 0 011.6 6c0 3.4-1.3 6.7-3.8 10.1a67.18 67.18 0 01-8.3 9.3c-2-2-4.3-4.1-6.8-6.2a45.11 45.11 0 00-8.4-5.5 54.51 54.51 0 00-10.6-4 48.73 48.73 0 00-13.2-1.6c-8.5 0-15.7 1.7-21.5 5.2A40.56 40.56 0 00340.1 96a57.24 57.24 0 00-7.5 19 105.21 105.21 0 00-2.3 21.7 110.3 110.3 0 002.3 22.6 53.42 53.42 0 007.8 19.1 41.23 41.23 0 0014.5 13.3c5.9 3.4 13.4 5 22.2 5a43.72 43.72 0 0012.9-1.8 52.44 52.44 0 0010.4-4.3 49.33 49.33 0 007.9-5.3c2.3-1.8 4.1-3.4 5.7-4.8 1 1.2 2.2 2.6 3.5 4.3a64.24 64.24 0 013.8 5.3 37.3 37.3 0 013 5.5 12.8 12.8 0 011.3 5 10.42 10.42 0 01-1.3 5.5 17.72 17.72 0 01-4 5.2zM549.9 192c0 13.3 1.9 23 5.8 29.1a46.83 46.83 0 01-8.5 2.5 43.85 43.85 0 01-8.2.8c-6.1 0-10.7-1.2-13.8-3.5a15.77 15.77 0 01-5.9-10.1 45.12 45.12 0 01-14.7 9.9c-6.1 2.7-13.5 4-22.3 4a49.76 49.76 0 01-13.7-1.9 35.28 35.28 0 01-12.4-6.2 33 33 0 01-9.1-11.5c-2.4-4.8-3.5-10.6-3.5-17.5 0-8.6 2.1-15.5 6.2-20.9a43.11 43.11 0 0115.6-12.7 71.2 71.2 0 0120.2-6.4c7.2-1.2 13.9-1.9 20-2.3 2-.2 4-.3 5.9-.3h5.4v-4.6c0-6.5-1.7-11.1-5.2-13.8s-9.1-4.1-16.8-4.1a50.7 50.7 0 00-19.3 3.5 181.51 181.51 0 00-16.6 8.1 35.3 35.3 0 01-5.7-9.5c-1.4-3.5-2.1-6-2.1-7.7 0-2.4 1.3-4.6 3.9-6.8a36.7 36.7 0 0110.7-5.9 86.7 86.7 0 0115.7-4.3 101.76 101.76 0 0118.7-1.6c9.1 0 16.8.9 23.1 2.8s11.5 4.7 15.4 8.6a32.51 32.51 0 018.5 14.5 73 73 0 012.5 20.4l.2 47.4zm-32.4-29.3H514a19.83 19.83 0 00-3.5.3c-4.2.3-8.4.8-12.5 1.5a39.44 39.44 0 00-11 3.5 22.9 22.9 0 00-7.8 6.6 17.09 17.09 0 00-3 10.4 18.3 18.3 0 004 12c2.7 3.3 7.2 4.9 13.7 4.9a30.35 30.35 0 009.1-1.3 27.72 27.72 0 007.6-3.3 19.18 19.18 0 005.2-4.4 7.22 7.22 0 001.9-4.4l-.2-25.8zm95.3-49.8c2.7-3.2 6.9-6.4 12.6-9.7s12.9-4.9 21.7-4.9a51 51 0 0117.8 3.2 39.34 39.34 0 0115 10.2c4.4 4.7 7.9 11 10.5 18.7s3.9 17.3 3.9 28.6c0 13.1-1.5 24-4.5 32.5s-6.9 15.3-11.7 20.2a39.79 39.79 0 01-16 10.5 54.7 54.7 0 01-17.6 3 43.6 43.6 0 01-12.7-1.6 47.49 47.49 0 01-9.2-3.7 24.15 24.15 0 01-5.8-4 20.68 20.68 0 01-2.5-2.8v62.2h-34.4V101.8c.8-.2 1.9-.3 3.1-.5a30.3 30.3 0 013.6-.4c1.4-.1 3-.1 4.8-.1 5.6 0 10.4.9 14.3 2.8a13.19 13.19 0 017.1 9.3zm45.5 46.8a70.7 70.7 0 00-1.3-14.2 34.14 34.14 0 00-4.1-11.4 20.09 20.09 0 00-7.8-7.5 24.34 24.34 0 00-11.9-2.7c-7 0-11.9 1.4-14.7 4a12.11 12.11 0 00-4.1 8.9v53.6c1.3 1.4 3.7 2.9 7.2 4.8a24.07 24.07 0 0011.9 2.8c8.5 0 14.8-3.4 18.9-10.1 3.9-6.7 5.9-16.1 5.9-28.2zm62.5 43.5a46.54 46.54 0 01-2.3-10.6c-.3-3.7-.5-7.4-.5-11.1V64.1c1.2-.2 2.4-.3 3.8-.5 1.2-.2 2.4-.3 3.8-.4s2.7-.1 4-.1a44.47 44.47 0 018.1.8 18.83 18.83 0 017.3 3 16.11 16.11 0 015.3 6.2 22.84 22.84 0 012 10.2v18h35.4v25.5h-35.4v53.9c0 11.8 4.8 17.6 14.4 17.6a20.91 20.91 0 006.7-1.1 51.16 51.16 0 005.7-2.5 25.81 25.81 0 004.4-2.9c1.3-1 2.1-1.8 2.7-2.3a81.52 81.52 0 015.8 9.6 18 18 0 012 7.6 10 10 0 01-2.7 6.5 27.63 27.63 0 01-7.5 5.9 46.08 46.08 0 01-11.6 4.3 63.49 63.49 0 01-14.9 1.7c-10.5 0-18.6-2-24.4-6.1a32.66 32.66 0 01-12.1-15.8zm154.1-3.3a42.34 42.34 0 0011.2-1.4 45.34 45.34 0 008.6-3.4 36.08 36.08 0 006.6-4.4c1.9-1.6 3.6-3.1 5.1-4.4a74.56 74.56 0 016.3 9.7c2.2 4 3.3 7.2 3.3 9.7 0 3.7-2.1 7.1-6.3 10.1-3.5 2.7-8.6 5-15 7a81.75 81.75 0 01-22.9 2.9 92.71 92.71 0 01-23.4-3 52.17 52.17 0 01-20.5-10.6c-6-5.1-10.8-11.8-14.5-20.4s-5.6-19.3-5.6-32.2c0-10.6 1.6-19.8 4.9-27.4a55.22 55.22 0 0113.2-19.1 50.68 50.68 0 0118.6-11.1 64.13 64.13 0 0121.2-3.5c9.4 0 17.4 1.5 24 4.4a44.56 44.56 0 0116.1 11.9 48.38 48.38 0 019 17.1 70.43 70.43 0 012.8 20.2v3.5c0 1.4 0 2.8-.1 4.3s-.2 3-.3 4.4a22.71 22.71 0 01-.4 3.4h-74.6c.7 9.3 3.6 17 8.6 23.1s13.1 9.2 24.1 9.2zm11.5-51.4c0-8.1-1.6-14.7-4.7-19.7s-8.8-7.6-16.9-7.6c-7 0-12.5 2.4-16.7 7.2s-6.2 11.5-6.2 20.1zm91-35a48.42 48.42 0 014-5 28.83 28.83 0 016.2-5 37.82 37.82 0 018.1-3.8 29.11 29.11 0 019.5-1.5 48.47 48.47 0 016.4.5 21 21 0 016.3 1.9 12.55 12.55 0 014.7 3.8 9.62 9.62 0 011.8 5.9 34.88 34.88 0 01-2.8 12.7 102.44 102.44 0 01-5.6 12.2 33.94 33.94 0 00-8.6-5.4 24.28 24.28 0 00-10.1-1.9 19.06 19.06 0 00-13.1 4.6 14 14 0 00-5.3 10.9v81.7h-34.4V101.8c.8-.2 1.9-.3 3-.5a30.92 30.92 0 013.5-.4c1.3-.1 2.9-.1 4.8-.1a29.23 29.23 0 0114 3.1 13.87 13.87 0 017.6 9.6zm97.7 0a48.42 48.42 0 014-5 28.83 28.83 0 016.2-5 37.82 37.82 0 018.1-3.8 29.11 29.11 0 019.5-1.5 48.47 48.47 0 016.4.5 21 21 0 016.3 1.9 12.55 12.55 0 014.7 3.8 9.62 9.62 0 011.8 5.9 34.88 34.88 0 01-2.8 12.7 102.44 102.44 0 01-5.6 12.2 33.94 33.94 0 00-8.6-5.4 24.28 24.28 0 00-10.1-1.9 19.06 19.06 0 00-13.1 4.6 14 14 0 00-5.3 10.9v81.7h-34.4V101.8c.8-.2 1.9-.3 3-.5a30.92 30.92 0 013.5-.4c1.3-.1 2.9-.1 4.8-.1a29.23 29.23 0 0114 3.1 13.87 13.87 0 017.6 9.6zm164.1 78.5c0 13.3 1.9 23 5.8 29.1a46.83 46.83 0 01-8.5 2.5 43.85 43.85 0 01-8.2.8c-6.1 0-10.7-1.2-13.8-3.5a15.77 15.77 0 01-5.9-10.1 45.12 45.12 0 01-14.7 9.9c-6.1 2.7-13.5 4-22.3 4a49.76 49.76 0 01-13.7-1.9 35.28 35.28 0 01-12.4-6.2 33 33 0 01-9.1-11.5c-2.4-4.8-3.5-10.6-3.5-17.5 0-8.6 2.1-15.5 6.2-20.9a43.11 43.11 0 0115.6-12.7 71.2 71.2 0 0120.2-6.4c7.2-1.2 13.9-1.9 20-2.3 2-.2 4-.3 5.9-.3h5.4v-4.6c0-6.5-1.7-11.1-5.2-13.8s-9.1-4.1-16.8-4.1a50.7 50.7 0 00-19.3 3.5 181.51 181.51 0 00-16.6 8.1 35.3 35.3 0 01-5.7-9.5c-1.4-3.5-2.1-6-2.1-7.7 0-2.4 1.3-4.6 3.9-6.8a36.7 36.7 0 0110.7-5.9 86.7 86.7 0 0115.7-4.3 101.76 101.76 0 0118.7-1.6c9.1 0 16.8.9 23.1 2.8s11.5 4.7 15.4 8.6a32.51 32.51 0 018.5 14.5 73 73 0 012.5 20.4V192zm-32.3-29.3h-3.5a19.83 19.83 0 00-3.5.3c-4.2.3-8.4.8-12.5 1.5a39.44 39.44 0 00-11 3.5 22.9 22.9 0 00-7.8 6.6 17.09 17.09 0 00-3 10.4 18.3 18.3 0 004 12c2.7 3.3 7.2 4.9 13.7 4.9a30.35 30.35 0 009.1-1.3 27.72 27.72 0 007.6-3.3 19.18 19.18 0 005.2-4.4 7.22 7.22 0 001.9-4.4l-.2-25.8z" fill="#044d80"/></svg>