<svg data-name="Layer 1" xmlns="http://www.w3.org/2000/svg" viewBox="0 0 536.25 150.15"><path d="M110.55 25.3c2.2-2.75 3.85-5.5 3.85-8.8 0-4.95-4.4-8.25-9.35-8.25a10 10 0 00-9.9 8.25l-6.6-2.2C90.2 5.5 96.8 0 105.55 0c9.35 0 17.05 6.6 17.05 16a19.69 19.69 0 01-6.05 13.75c-7.15 8.25-7.15 8.25-14.85 17h20.4v7.15H88.55v-3.3z" fill="#456474"/><path d="M89.1 91.3V64.35h58.85a82.05 82.05 0 011.1 11.55 74.29 74.29 0 01-74.25 74.25C33.55 150.15 0 116.6 0 75.9S33.55 1.65 74.25 1.65v26.4a47.85 47.85 0 000 95.7A48.85 48.85 0 00119.9 91.3M203.5 72.6c0-19.8 1.1-27.5 4.4-32.45 4.4-6 12.1-9.35 22.55-9.35 8.8 0 16.5 2.75 20.35 7.15 3.3 3.3 4.4 8.25 4.4 15.4v4.95h-16.5c0-8.25-.55-9.9-1.65-11.55-1.1-2.2-3.85-3.3-7.15-3.3s-6.05 1.65-7.15 3.85c-1.65 3.3-2.2 9.35-2.2 25.85 0 13.2.55 20.9 1.65 24.2a7.37 7.37 0 007.15 4.4c6.6 0 8.25-3.3 8.8-15.4h16.5c0 10.45-.55 14.85-2.75 18.7-3.3 6.05-11 9.35-22.55 9.35-13.2 0-21.45-5-24.2-14.85-1.1-4.4-1.65-13.75-1.65-26.95zM264.55 31.9h25.85c12.1 0 14.85.55 18.7 3.85s5.5 8.25 5.5 16c0 6.6-1.1 11.55-3.85 14.85-2.2 2.75-4.95 4.4-10.45 5.5 11 1.1 14.3 6.6 14.85 19.8a117.29 117.29 0 00.55 12.1c0 3.85.55 4.4 1.1 7.7h-17.6c-.55-5-.55-5.5-.55-15.4 0-9.35-.55-14.3-2.75-16.5-1.1-1.65-2.75-1.65-7.15-1.65h-8.25v33.55H264l.55-79.75zm23.1 35.2c7.7 0 10.45-3.3 10.45-11.55 0-4.4-1.1-8.25-3.3-9.9-1.65-1.1-2.75-1.65-6.6-1.65h-7.15v22.55l6.6.55zM325.6 72.05c0-18.7.55-25.3 3.85-30.8 3.85-6.6 12.1-10.45 23.1-10.45 12.65 0 20.9 4.4 24.2 13.2 1.65 4.4 2.2 12.65 2.2 28.05 0 17.05-.55 24.75-3.3 29.15-3.85 7.7-12.1 11.6-23.65 11.6s-19.25-3.3-23.1-10.45c-2.75-5-3.3-11.55-3.3-30.3zm26.95 29.15c4.95 0 7.7-2.2 8.8-7.15.55-3.3 1.1-13.2 1.1-24.75 0-12.1-.55-19.25-1.65-22s-4.4-4.4-8.25-4.4c-4.4 0-7.7 2.2-8.8 5.5-.55 3.3-1.1 11.55-1.1 24.2 0 10.45.55 17.6 1.1 20.9.55 5.5 3.85 7.7 8.8 7.7zM385 31.9h16.5l5.5 29.15c1.65 10.45 2.2 20.35 3.3 38.5 3.3-24.75 4.4-31.35 6.05-38.5l6.6-29.15h18.7l6.05 29.15c2.75 13.2 3.3 22.55 4.4 38.5a335.74 335.74 0 014.95-38.5L462 31.9h14.85l-16 80.3h-18.1l-8.25-37.4c-1.1-6.6-2.75-21.45-3.3-29.7-2.2 18.15-2.75 20.35-4.4 29.7l-7.7 37.4h-18.7zM483.5 31.9H506c13.2 0 17 .55 20.9 3.85 5 3.85 7.7 10.45 8.8 23.1.55 4.95.55 11.55.55 17.05 0 14.3-1.1 21.45-3.3 26.4-3.3 6.6-11 10.45-20.9 10.45h-28l-.55-80.85zm23.65 67.65c5.5 0 8.8-1.1 9.9-4.4s1.65-7.7 1.65-20.9c0-14.3-.55-20.35-1.65-24.75-1.1-3.3-4.4-4.95-9.35-4.95h-7.2v55zM174.35.55h5.5V148.5h-5.5z" fill="#456474"/></svg>