<svg data-name="Layer 1" xmlns="http://www.w3.org/2000/svg" viewBox="0 0 1480.13 165.8"><g data-name="Normal-Registered"><path data-name="Fill-1" d="M1347.03 14.2a14.25 14.25 0 0114.2-14.2h104.7a14.25 14.25 0 0114.2 14.2v51.4a14.25 14.25 0 01-14.2 14.2h-10.9c-7.8 0-19.7 3.1-26.6 6.9l-38 21.1c-6.8 3.8-9.7 1.1-6.5-6l4.4-9.6c3.2-7.1-.5-12.9-8.3-12.9h-18.9a14.25 14.25 0 01-14.2-14.2V14.2" fill="#fd810b"/><path data-name="Fill-21" d="M1347.13 147.9a4.64 4.64 0 002.1-.4 1.84 1.84 0 00.8-1.8 1.61 1.61 0 00-.3-1.1 1.56 1.56 0 00-.8-.6c-.3-.1-.7-.2-1.1-.3s-.8-.1-1.1-.1h-2.5v4.3zm0-7.3a7.84 7.84 0 015 1.4 5 5 0 011.7 4 4.55 4.55 0 01-1.2 3.4 4.7 4.7 0 01-3 1.4l4.3 7.1h-4.2l-4.1-7h-1.4v7h-3.8v-17.3zm-10.8 13.1a12.79 12.79 0 002.3 3.7 12.43 12.43 0 003.5 2.5 11.7 11.7 0 009 0 9 9 0 003.5-2.5 10.07 10.07 0 002.3-3.7 11.08 11.08 0 00.8-4.4 11.8 11.8 0 00-3.1-8.1 11.6 11.6 0 00-3.6-2.5 11.7 11.7 0 00-9 0 10.79 10.79 0 00-5.9 6.2 11.08 11.08 0 00-.8 4.4 12.86 12.86 0 001 4.4zm-4.5-10.7a15.2 15.2 0 013.4-5.1 13.85 13.85 0 015.1-3.4 16.11 16.11 0 016.3-1.3 16.81 16.81 0 016.3 1.2 16.27 16.27 0 015.1 3.4 15.72 15.72 0 013.4 5.1 16.11 16.11 0 011.3 6.3 16.44 16.44 0 01-1.2 6.3 16.27 16.27 0 01-3.4 5.1 17.5 17.5 0 01-5.1 3.4 16.08 16.08 0 01-6.3 1.2 16.81 16.81 0 01-6.3-1.2 13.85 13.85 0 01-5.1-3.4 15.44 15.44 0 01-3.5-5.1 16.11 16.11 0 01-1.3-6.3 19.09 19.09 0 011.3-6.2z" fill="#2d284d"/><path data-name="Fill-19" d="M1294.13 101.2h-23.1a2.1 2.1 0 01-2.3-2.3l.2-3c.4-6.1 6.2-10.6 13.8-10.6 7.4 0 13.3 4.4 13.8 10.4l.2 3c0 1.4-.5 2.5-2.6 2.5zm-12.3-40.1c-25 0-42.8 18-42.8 38.6V127c0 22.9 17 38.8 42.8 38.8 14 0 24.1-4.9 31.3-11.9a58.31 58.31 0 008.5-11.4c1.3-2.1.6-4.5-.6-5.1l-21-10.6c-1.3-.6-2.6-.2-3.2 1.7-2.9 7.4-7.8 10.8-15 10.8-7.8 0-13.4-5.3-13.4-12.1v-4.7c0-1.5.6-2.3 2.5-2.3h51.1a1.86 1.86 0 002.1-2.1V99.7c.1-20.4-17.5-38.6-42.3-38.6z" fill="#2d284d"/><path data-name="Fill-18" d="M1190.33 87.2c6.6 0 11.4 4.2 15 12.7a2.17 2.17 0 003.2 1.3l20.8-9.3c1.3-.6 1.7-1.9 1.1-3.6a49.23 49.23 0 00-6.8-11.9c-7-9.3-17.4-14.6-33.5-14.6-26.3 0-42.2 15.9-42.2 38.8v25.8c0 22.9 15.9 38.6 42.2 38.6 14.8 0 24.6-4.4 31.6-12.3a50.28 50.28 0 008.7-14.4c.6-1.7.2-2.8-1.1-3.4l-20.8-9.5a2.19 2.19 0 00-3.2 1.3c-3.6 8.5-8.5 12.9-15 12.9-7.8 0-12.9-5.5-12.9-12.3V99.5c-.1-6.8 5-12.3 12.9-12.3" fill="#2d284d"/><path data-name="Fill-17" d="M1129.23 64.1h-25.2c-1.5 0-2.1.6-2.1 2.1v94.3c0 1.5.6 2.1 2.1 2.1h25.2c1.2 0 1.9-.6 1.9-2.1V66.2a1.84 1.84 0 00-1.9-2.1" fill="#2d284d"/><path data-name="Fill-20" d="M1116.43 22.5a14.9 14.9 0 1014.9 14.9 14.94 14.94 0 00-14.9-14.9" fill="#2d284d"/><path data-name="Fill-16" d="M1088.63 64.1h-26.9a2.34 2.34 0 00-2.3 1.7l-15.9 45.6a78.47 78.47 0 00-2.5 10.6h-.6a67.81 67.81 0 00-2.5-10.6l-16.5-45.8a2 2 0 00-2.1-1.5h-26.9c-1.9 0-2.5 1.3-1.9 3l37.9 94.1a2.21 2.21 0 002.1 1.5h19.7a2.17 2.17 0 002.3-1.5l38.1-94.1c.6-1.7 0-3-2-3" fill="#2d284d"/><path data-name="Fill-15" d="M949.73 126c0 7-5.7 12.3-13.1 12.3-7.6 0-12.9-5.3-12.9-12.3v-25.4c0-6.8 5.3-11.9 12.9-11.9s13.1 5.1 13.1 11.9zm27.1-96.9h-25a2 2 0 00-2.1 2.1v29.5c0 3.2.6 9.3.6 9.3-4.2-3.8-11.2-5.9-16.3-5.9-23.1 0-39.8 15.5-39.8 38.6v21.4c0 24.6 14.4 38.6 40.3 38.6 5.9 0 12.9-1.9 17.4-5.7 1.3-1.1 2.8-.7 2.8 1v3.2a1.53 1.53 0 001.7 1.5h20.5a1.86 1.86 0 002.1-2.1V31.2a2 2 0 00-2.2-2.1z" fill="#2d284d"/><path data-name="Fill-14" d="M839.13 117.1h-12.9c-2.1 0-3-1.3-2.5-2.5l4.4-17.2a141 141 0 004.2-22.7h.9a137.12 137.12 0 003.8 22.7l4.5 17.2c.4 1.2-.5 2.5-2.4 2.5zm5.1-86.5a2 2 0 00-2.1-1.5h-18.9a1.83 1.83 0 00-2.1 1.5l-41.7 129.3c-.6 1.7.2 2.8 2.1 2.8h26.7c1.1 0 1.5-.4 1.9-1.5l6.1-19.3c.4-1.1.8-1.3 2.3-1.3h28c1.5 0 1.9.2 2.3 1.3l5.9 19.3a2 2 0 002.1 1.5h26.9c2.1 0 2.8-1.1 2.1-2.8z" fill="#2d284d"/><path data-name="Fill-13" d="M703.33 101.2h-23.1a2.1 2.1 0 01-2.3-2.3l.2-3c.4-6.1 6.2-10.6 13.8-10.6 7.4 0 13.4 4.4 13.8 10.4l.2 3c-.1 1.4-.5 2.5-2.6 2.5zm-12.3-40.1c-25 0-42.8 18-42.8 38.6V127c0 22.9 16.9 38.8 42.8 38.8 14 0 24.2-4.9 31.4-11.9a54.56 54.56 0 008.5-11.4c1.3-2.1.6-4.5-.6-5.1l-21-10.6c-1.3-.6-2.5-.2-3.2 1.7-3 7.4-7.8 10.8-15 10.8-7.8 0-13.4-5.3-13.4-12.1v-4.7c0-1.5.6-2.3 2.6-2.3h51.1a1.86 1.86 0 002.1-2.1V99.7c-.1-20.4-17.7-38.6-42.5-38.6z" fill="#2d284d"/><path data-name="Fill-12" d="M635.53 64.5a39 39 0 00-5.5-.4c-8 0-15.7 3.8-19.1 8-1.1 1-2.8.9-2.8-1v-4.9c0-1.5-.6-2.1-2.1-2.1h-20.1a1.86 1.86 0 00-2.1 2.1v94.3a1.86 1.86 0 002.1 2.1h25a1.86 1.86 0 002.1-2.1v-56.2a12.24 12.24 0 0112.7-12.7 31.83 31.83 0 018.5 1.1c1.9.4 3.2-.2 3.2-2.1v-24a2.14 2.14 0 00-1.9-2.1" fill="#2d284d"/><path data-name="Fill-11" d="M523.13 139.7h-7.8c-4.5 0-7-2.8-7-8.7a6.93 6.93 0 017.2-7.2h18c1.3 0 1.7 2.3 1.7 3-.5 7.8-6.4 12.9-12.1 12.9zm-.6-77.9c-13.1 0-22.9 4.2-30.1 10.8a45.23 45.23 0 00-9.7 12.5c-1.3 2.1-.6 4.5.6 5.1l21 10.6c1.3.6 2.5.2 3.2-1.7 3-7.4 7.8-10.8 15-10.8 7.8 0 12.7 5.3 12.7 12.1v1.1c0 1.5-.6 2.3-2.1 2.3h-18.7c-18.6 0-33.7 10.2-33.7 28v2.1c0 18 13.6 28.8 31.8 28.8h7.4c5.7 0 12.1-1.9 16.5-5.5.8-.6 1.9-.4 2.1.2l.6 3.6a2.12 2.12 0 002.3 1.7h20.8a1.86 1.86 0 002.1-2.1v-60c.1-22.9-16-38.8-41.8-38.8z" fill="#2d284d"/><path data-name="Fill-10" d="M472.23 64.1h-25.6a2.06 2.06 0 00-2.3 1.7l-9.5 39.8a89.33 89.33 0 00-2.1 15.3h-.7a88.74 88.74 0 00-2.3-15.3l-9.6-39.8a2.12 2.12 0 00-2.3-1.7h-21a1.86 1.86 0 00-2.1 1.7l-9.3 39.6a107.55 107.55 0 00-2.3 14.4h-.6a82.06 82.06 0 00-2.1-14.4l-9.9-39.6a1.86 1.86 0 00-2.1-1.7h-26.3c-1.9 0-2.6 1.1-1.9 2.8l29.9 94.3a2.13 2.13 0 002.1 1.5h18.7c1.3 0 1.9-.4 2.1-1.5l11.7-43.9a125.21 125.21 0 002.3-13.1h.6s1.1 8.3 2.3 13.1l11.4 43.6a1.86 1.86 0 002.1 1.7h18.4a2 2 0 002.1-1.5l30.3-94.3c.6-1.4-.1-2.7-2-2.7" fill="#2d284d"/><path data-name="Fill-9" d="M329.33 64.1h-14.2c-1.9 0-2.5-.6-2.5-2.1V48.6c0-1.5-.4-1.9-1.9-1.9h-13.4a3.58 3.58 0 00-2.5 1.1l-26.5 26.5v14.4c0 1.5.6 1.9 2.1 1.9h10.6c1.9 0 2.5.9 2.5 2.3V126c0 25.4 15.9 38.6 36 38.6h8.9c1.9 0 2.8-.8 2.8-2.3v-21.8a1.86 1.86 0 00-2.1-2.1h-3.6c-8.7 0-12.9-5.3-12.9-14.4V92.9c0-1.5.6-2.3 2.5-2.3h14.2c1.5 0 1.9-.4 1.9-1.9V66.2c0-1.5-.4-2.1-1.9-2.1" fill="#2d284d"/><path data-name="Fill-8" d="M266.03 28.1a76.46 76.46 0 00-15-1.5c-31.4 0-43.2 21.8-43.2 39v5.3c0 1.5-.6 2.1-2.3 2.1h-4.9a1.86 1.86 0 00-2.1 2.1v22.3a1.86 1.86 0 002.1 2.1h4.9c1.9 0 2.3.6 2.3 2.1v58.9c0 1.5.6 2.1 2.1 2.1h25c1.5 0 2.1-.6 2.1-2.1v-58.9c0-1.5.6-2.1 2.3-2.1h13.7c1.5 0 2.1-.6 2.1-2.1V75.1c0-1.5-.6-2.1-2.1-2.1h-13.8c-1.7 0-2.3-.6-2.3-2.1v-5.7c0-7.4 5.3-12.1 13.3-12.1a28.65 28.65 0 018 1.1c1.5.4 2.3 0 2.8-1.3l6.6-21.8c.5-1.5.1-2.6-1.6-3" fill="#2d284d"/><path data-name="Fill-7" d="M156.43 127.2c0 6.8-5.5 12.3-12.9 12.3-7.8 0-13.4-5.5-13.4-12.3V99.5c0-6.6 5.5-12.3 13.4-12.3 7.4 0 12.9 5.5 12.9 12.3zm-12.9-65.4c-25.9 0-42.8 15.9-42.8 38.8v25.8c0 22.9 16.9 38.6 42.8 38.6 25.4 0 42.4-15.5 42.4-38.6v-25.8c0-23.2-17-38.8-42.4-38.8z" fill="#2d284d"/><path data-name="Fill-4" d="M55.23 82.9c-11.7-4.4-24.2-7.6-24.2-17.1 0-7.6 5.7-12.7 13.1-12.7h3.2c7.2 0 12.1 3.4 15.1 10.8.6 1.9 1.9 2.3 3.2 1.7l21-10.6c1.3-.6 1.9-3 .6-5.1a42.87 42.87 0 00-6.4-9.1c-7.4-8.3-18-14.2-33.5-14.2h-3.2c-26.5 0-42.8 15.7-42.8 39.6 0 24.4 15.7 33.5 35.2 41.3 12.7 5.1 23.7 7.8 23.7 18.4 0 8.7-6.8 12.5-14.4 12.5h-5.3c-7.2 0-12.1-3.4-15-10.8-.6-1.9-1.9-2.3-3.2-1.7l-21 10.6c-1.3.6-1.9 3-.6 5.1a50.28 50.28 0 007 9.8c7.2 8 17.8 13.5 32.8 13.5h6.8c26.9 0 42.6-15.5 42.6-39.4 0-24.7-14.6-34.7-34.7-42.6" fill="#2d284d"/></g></svg>